<svg width="45" height="38" viewBox="0 0 45 38" fill="none" xmlns="http://www.w3.org/2000/svg">
<path fill-rule="evenodd" clip-rule="evenodd" d="M43.4041 27.9999C40.0497 33.306 34.3125 36.895 27.7309 36.895C17.6561 36.895 9.40405 28.4284 9.40405 17.9601C9.40405 10.503 13.7433 3.90282 20.0373 0.89502C18.2197 3.75885 17.2364 7.20375 17.2364 10.9331C17.2364 21.2592 25.4952 29.7172 35.57 29.7172C38.3658 29.7172 41.0263 29.1465 43.4041 27.9999Z" fill="white" stroke="white" stroke-width="0.4819" stroke-miterlimit="10"/>
<path fill-rule="evenodd" clip-rule="evenodd" d="M40.9376 15.7908C41.0129 15.7553 41.0129 15.6484 40.9754 15.577C40.9754 15.5056 40.8997 15.4342 40.7865 15.4342L39.0512 15.3264C38.9759 15.2905 38.8992 15.255 38.8618 15.1836L38.1454 13.1078C38.108 13.0359 38.0327 13 37.9574 13C37.8442 13 37.769 13.0359 37.769 13.1078L37.1269 15.2191C37.0895 15.2905 37.0142 15.3264 36.938 15.3264L35.2027 15.4697C35.1274 15.5056 35.0521 15.5411 35.0147 15.6125C34.9773 15.7198 35.0147 15.7908 35.09 15.8627L36.411 16.9365C36.4863 16.972 36.4863 17.0434 36.4863 17.1152L36.1075 18.7249C36.0701 18.8335 36.1075 18.9049 36.1851 18.9409C36.2604 19.0123 36.3357 19.0123 36.411 18.9764L37.9205 18.0817C37.9953 18.0462 38.0706 18.0462 38.1459 18.0817L39.6554 18.9409C39.7307 18.9764 39.8059 18.9764 39.8812 18.9049C39.9565 18.8695 39.9944 18.7981 39.9565 18.6912L39.5422 17.0798C39.5422 17.0079 39.5422 16.9365 39.6179 16.9006L40.9376 15.7908Z" fill="white" stroke="white" stroke-width="0.4819" stroke-miterlimit="10"/>
<path fill-rule="evenodd" clip-rule="evenodd" d="M7.88487 4.79508C8.00002 4.7407 8 4.68565 8 4.57623C7.94208 4.52186 7.88485 4.46683 7.7697 4.46683L6.0384 4.30304C5.98048 4.30304 5.92323 4.24799 5.86531 4.19295L5.11585 2.10944C5.11585 2.05507 5.05655 2 4.94071 2C4.82557 2 4.76834 2.05507 4.76834 2.10944L4.13469 4.19295C4.07677 4.30303 4.01886 4.35739 3.96164 4.35739L2.2303 4.46683C2.11515 4.52187 2.05792 4.57624 2 4.63128C2 4.74069 2.00001 4.79508 2.05793 4.85012L3.38523 5.94692C3.44246 5.94692 3.50104 6.05631 3.50104 6.11201L3.09769 7.75524C3.09769 7.81028 3.09772 7.91969 3.21286 7.97672C3.27009 7.97672 3.32799 8.0291 3.44244 7.97672L4.88347 7.09807C4.99931 7.0437 5.05654 7.0437 5.11585 7.09807L6.61481 7.91969C6.67273 7.97672 6.78788 7.97672 6.84511 7.91969C6.96095 7.86465 6.96091 7.81026 6.96091 7.70085L6.55756 6.11201C6.49964 5.99994 6.55759 5.9469 6.61481 5.89054L7.88487 4.79508Z" fill="white" stroke="white" stroke-width="0.4819" stroke-miterlimit="10"/>
<path fill-rule="evenodd" clip-rule="evenodd" d="M4.92325 32.8634C5.00001 32.8271 5 32.7904 5 32.7175C4.96139 32.6812 4.92323 32.6446 4.84647 32.6446L3.69227 32.5354C3.65366 32.5354 3.61549 32.4987 3.57687 32.462L3.07723 31.073C3.07723 31.0367 3.0377 31 2.96047 31C2.88371 31 2.84556 31.0367 2.84556 31.073L2.42313 32.462C2.38451 32.5354 2.34591 32.5716 2.30776 32.5716L1.15353 32.6446C1.07677 32.6812 1.03861 32.7175 1 32.7542C1 32.8271 1 32.8634 1.03862 32.9001L1.92349 33.6313C1.96164 33.6313 2.0007 33.7042 2.0007 33.7413L1.7318 34.8368C1.7318 34.8735 1.73181 34.9465 1.80858 34.9845C1.84672 34.9845 1.88533 35.0194 1.96162 34.9845L2.92231 34.3987C2.99954 34.3625 3.03769 34.3625 3.07723 34.3987L4.07654 34.9465C4.11515 34.9845 4.19192 34.9845 4.23007 34.9465C4.3073 34.9098 4.30728 34.8735 4.30728 34.8006L4.03838 33.7413C3.99976 33.6666 4.03839 33.6313 4.07654 33.5937L4.92325 32.8634Z" fill="white" stroke="white" stroke-width="0.4819" stroke-miterlimit="10"/>
</svg>
